<svg width="21" height="20" viewBox="0 0 21 20" fill="none" xmlns="http://www.w3.org/2000/svg">
<path d="M2.5 20C1.95 20 1.47917 19.8042 1.0875 19.4125C0.695833 19.0208 0.5 18.55 0.5 18V4H2.5V18H16.5V20H2.5ZM6.5 16C5.95 16 5.47917 15.8042 5.0875 15.4125C4.69583 15.0208 4.5 14.55 4.5 14V2C4.5 1.45 4.69583 0.979167 5.0875 0.5875C5.47917 0.195833 5.95 0 6.5 0H18.5C19.05 0 19.5208 0.195833 19.9125 0.5875C20.3042 0.979167 20.5 1.45 20.5 2V14C20.5 14.55 20.3042 15.0208 19.9125 15.4125C19.5208 15.8042 19.05 16 18.5 16H6.5ZM11.5 9L14 7.5L16.5 9V2H11.5V9Z" fill="#1C1B1F"/>
</svg>
