<svg width="20" height="21" viewBox="0 0 20 21" fill="none" xmlns="http://www.w3.org/2000/svg">
<path d="M19.7449 20.1119C19.4084 20.4484 18.862 20.4484 18.5255 20.1119L10 11.5852L1.47184 20.1119C1.13534 20.4484 0.588869 20.4484 0.252372 20.1119C-0.0841241 19.7753 -0.0841241 19.2288 0.252372 18.8922L8.78054 10.3656L0.255064 1.83629C-0.0814321 1.49975 -0.0814321 0.953206 0.255064 0.616664C0.591561 0.280122 1.13803 0.280122 1.47453 0.616664L10 9.14598L18.5282 0.619356C18.8647 0.282815 19.4111 0.282815 19.7476 0.619356C20.0841 0.955898 20.0841 1.50244 19.7476 1.83898L11.2195 10.3656L19.7449 18.8949C20.0814 19.2315 20.0814 19.7753 19.7449 20.1119Z" fill="#DCDCDC"/>
</svg>
